<svg width="24" height="24" viewBox="0 0 24 24" fill="none" xmlns="http://www.w3.org/2000/svg">
<path fill-rule="evenodd" clip-rule="evenodd" d="M10.543 17.3756L10.551 17.365L10.5725 17.3624C10.5698 17.3661 10.5671 17.3697 10.5642 17.3732L10.543 17.3756ZM12.2378 6.2102C12.3398 6.25156 12.4395 6.2989 12.5364 6.35098C12.6781 6.42538 12.8141 6.51026 12.9432 6.60466C12.9479 6.61333 12.9525 6.61767 12.9618 6.622C12.92 6.66535 12.2146 7.52796 13.3934 9.68233C13.4723 9.80371 13.5465 9.92508 13.6161 10.0421C13.6341 10.0723 13.6523 10.1018 13.6706 10.131C13.6848 10.1537 13.6991 10.1762 13.7132 10.1985L13.7141 10.1998C13.7523 10.2601 13.79 10.3195 13.825 10.3802C13.8988 10.4888 13.9984 10.6397 14.085 10.7708C14.1291 10.8376 14.1699 10.8993 14.2021 10.9476C14.2378 11.0012 14.2629 11.0383 14.2705 11.0478L14.2844 11.0521C14.6046 11.5636 14.8692 12.0014 15.0641 12.4176C15.3054 12.9464 15.4446 13.4493 15.4446 14.0345C15.4446 14.0951 15.4446 14.1558 15.4354 14.2122C15.4168 14.4506 15.375 14.6846 15.3101 14.91C14.9991 15.9807 14.1684 16.8607 13.0731 17.2725C12.6787 17.4242 12.2471 17.5109 11.7969 17.5282C11.3607 17.5456 10.9476 17.4979 10.5531 17.3852L10.5559 17.3825L10.541 17.3784L10.5392 17.3809L10.5253 17.3678L10.551 17.365C10.5555 17.359 10.561 17.3521 10.5666 17.3453C10.5731 17.3375 10.5798 17.3299 10.5856 17.3245C11.0868 16.735 11.3885 15.9981 11.4117 15.2048C11.4163 15.1398 11.421 15.0661 11.421 14.9967C11.421 14.6023 11.3282 14.2338 11.1704 13.8697C11.0822 13.6443 10.9662 13.4319 10.8362 13.2368C10.567 12.7995 10.2277 12.3708 9.88574 11.9388C9.68536 11.6857 9.48408 11.4313 9.29546 11.1735C8.87315 10.6013 8.51115 10.0074 8.34408 9.3659L8.3351 9.32648C8.31978 9.25963 8.30544 9.19713 8.29765 9.13182C8.26981 8.96276 8.25126 8.79805 8.25126 8.62465V8.58997C8.25126 8.2562 8.33944 7.90942 8.4833 7.60165C8.62252 7.29822 8.82672 7.01646 9.0727 6.78238C9.53679 6.34024 10.1679 6.08015 10.8177 6.01513C11.3003 5.96745 11.7923 6.03247 12.2378 6.2102ZM11.7691 7.78805C11.7691 8.03079 11.5556 8.2432 11.2818 8.2432C11.0126 8.2432 10.7945 8.0438 10.7945 7.78805C10.7945 7.5453 11.008 7.3329 11.2818 7.3329C11.5417 7.3329 11.7691 7.5323 11.7691 7.78805ZM13.5465 6.609V6.68269C13.5976 8.10882 15.0641 10.2285 18.2709 10.2285C19.64 10.2285 20.7538 9.84272 21.552 9.24886C22.4895 8.5553 23 7.57564 23 6.609H13.5465ZM10.1157 16.4745C10.313 16.069 10.4232 15.6188 10.4232 15.1441V15.1398C10.4232 13.3495 8.8685 11.9061 6.96111 11.9061H5.98653C5.34575 11.9061 4.74074 12.0485 4.20535 12.3011C3.4839 12.6393 2.88821 13.1769 2.50122 13.835C2.4761 13.8777 2.45185 13.921 2.42851 13.9647C2.16004 14.4643 2.00929 15.0281 2.00929 15.6253L2 17.1424C2 17.1424 2.00008 17.1405 2.00102 17.1381C2.00102 17.1381 2.00289 17.1342 2.00487 17.1324L2.00929 17.1294L2 18.7636C2 18.9587 2.23669 19.0671 2.40375 18.9544L2.9978 18.5382C3.13702 18.4429 3.30409 18.3909 3.4758 18.3909H6.96111C7.91248 18.3909 8.78032 18.0311 9.40222 17.4415C9.69924 17.1641 9.94202 16.837 10.1157 16.4745Z" fill="black"/>
</svg>
